<svg xmlns="http://www.w3.org/2000/svg" xml:space="preserve" width="300mm" height="250mm" version="1.1" style="shape-rendering:geometricPrecision; text-rendering:geometricPrecision; image-rendering:optimizeQuality; fill-rule:evenodd; clip-rule:evenodd"
viewBox="0 0 30000 25000"
 xmlns:xlink="http://www.w3.org/1999/xlink">
 <defs>
  <style type="text/css">
    .str0 {stroke:#2B2A29;stroke-width:400}
    .fil2 {fill:#2B2A29}
    .fil0 {fill:white}
    .fil1 {fill:#2B2A29;fill-rule:nonzero}
  </style>
 </defs>
 <g id="Слой_x0020_1">
  <metadata id="CorelCorpID_0Corel-Layer"/>
  <path class="fil0 str0" d="M15179 2402c5912,0 8864,2178 8864,2178l-5 7215c0,8897 -6122,8444 -8854,10808 -2732,-2364 -8870,-1908 -8870,-10805l0 -7218c0,0 2953,-2178 8865,-2178z"/>
  <path class="fil0 str0" d="M15181 3144c5480,0 8217,2018 8217,2018l-5 6683c0,8241 -5674,7821 -8207,10011 -2533,-2190 -8221,-1768 -8221,-10009l0 -6685c0,0 2737,-2018 8216,-2018z"/>
  <g id="_2357746307232">
   <polygon class="fil1" points="17651,6877 17948,6060 18242,5242 17488,5675 16737,6112 17192,6494 "/>
   <path class="fil1" d="M17108 6616l-11 -9 -442 -371 -3690 4402 -116 138 -380 454 -211 251c-199,238 -232,537 -74,670l335 281c158,133 448,48 648,-190l209 -251 381 -454 115 -138 3690 -4402 -454 -381z"/>
  </g>
  <g id="_2357746308768">
   <path class="fil1" d="M11758 5343c0,0 4,0 11,2l-6 -7c0,0 1138,117 1801,894 370,434 406,936 134,1188l-1 -1c-2,2 -3,5 -5,6 -277,331 -773,184 -1175,-220 -628,-632 -759,-1862 -759,-1862z"/>
   <path class="fil1" d="M13474 7833l326 -303 271 -252 572 616c96,-34 200,-18 276,65l5 4c1,1 1,2 2,2l920 1079 2296 2688c33,35 52,75 61,117 2,5 4,12 5,18 1,6 2,11 2,17 5,46 -4,93 -31,141 -5,12 -14,23 -22,35 -1,2 -1,3 -2,5 -15,19 -29,37 -46,53l-68 63c-116,109 -263,106 -371,-10l-3527 -3491c-55,-59 -74,-130 -67,-200l-602 -647z"/>
  </g>
  <polygon class="fil1" points="15185,18316 15445,19105 16275,19109 15605,19599 15858,20390 15185,19905 14511,20390 14764,19599 14094,19109 14925,19105 "/>
  <polygon class="fil1" points="15185,4127 15445,4916 16275,4920 15605,5411 15858,6201 15185,5716 14511,6201 14764,5411 14094,4920 14925,4916 "/>
  <polygon class="fil1" points="11696,9012 8353,9012 8353,8834 11696,8834 "/>
  <polygon class="fil1" points="21971,9012 18628,9012 18628,8834 21971,8834 "/>
  <polygon class="fil1" points="15184,12289 14612,11716 15184,11143 15757,11716 "/>
  <path class="fil2" d="M28836 16319c-9439,-4722 -20161,-3719 -27672,0l2473 1447 -399 2811c6055,-3011 14394,-4329 23516,0l-150 -2716 2232 -1542zm-18372 888c31,37 42,75 33,114 -9,39 -29,71 -60,96 -31,25 -67,39 -108,42 -41,2 -76,-16 -107,-53 -64,-73 -124,-150 -181,-231 -57,-82 -113,-164 -170,-245 -56,-82 -113,-162 -171,-243 -57,-80 -118,-155 -181,-226 -25,181 -49,360 -74,538 -25,178 -53,357 -84,537 -9,47 -31,81 -69,102 -37,21 -75,31 -115,29 -39,-3 -74,-17 -104,-43 -30,-25 -40,-62 -32,-109 41,-233 76,-466 107,-699 31,-233 64,-467 100,-704 -1,-2 -1,-3 -2,-3 -1,0 -2,-1 -2,-3 -77,-118 -151,-236 -224,-355 -72,-118 -143,-238 -211,-360 -26,-47 -52,-95 -76,-145 -25,-50 -52,-99 -80,-148 -29,-48 -60,-95 -93,-138 -34,-44 -73,-83 -119,-118 -38,-30 -57,-65 -57,-106 0,-41 11,-77 33,-107 23,-31 54,-51 93,-62 39,-11 78,-1 116,29 81,62 154,135 219,219 64,83 124,171 180,263 55,93 107,187 156,283 48,96 97,189 147,277 38,-209 85,-416 139,-622 54,-206 121,-410 200,-614 17,-44 46,-73 86,-86 40,-13 79,-13 117,-1 38,12 68,35 89,68 22,32 24,71 6,116 -98,253 -176,507 -235,762 -59,255 -110,515 -151,779 56,78 114,154 173,227 60,74 124,144 193,211 51,51 98,108 141,169 43,61 85,124 126,189 40,65 80,130 121,194 40,64 84,123 131,177zm1819 -1866c17,77 35,167 56,270 20,103 37,211 51,325 13,115 21,231 23,349 3,118 -7,230 -29,336 -22,106 -59,203 -110,291 -51,88 -121,159 -211,211 -74,44 -160,79 -256,107 -96,27 -196,45 -298,54 -102,9 -202,7 -302,-4 -99,-11 -188,-32 -268,-65 -97,-39 -175,-102 -233,-188 -58,-86 -104,-182 -137,-287 -33,-106 -56,-213 -71,-322 -15,-109 -28,-205 -39,-290 -17,-146 -30,-291 -39,-433 -10,-143 -21,-288 -33,-435 -7,-89 -12,-180 -14,-273 -2,-94 2,-186 14,-278 11,-85 35,-159 72,-222 37,-63 81,-116 131,-160 50,-44 103,-80 159,-108 55,-27 108,-49 158,-65 49,-16 92,-27 128,-32 35,-6 58,-9 66,-10 93,-10 185,-11 276,-2 90,9 175,30 254,61 79,32 152,76 218,130 66,55 123,124 170,206 70,127 124,263 163,408 39,146 73,287 101,426zm-292 1401c47,-107 76,-220 88,-340 11,-120 12,-241 3,-363 -9,-123 -26,-244 -50,-365 -24,-120 -48,-235 -72,-344 -23,-91 -46,-182 -71,-273 -24,-90 -54,-179 -89,-267 -99,-256 -281,-385 -545,-385 -4,5 -21,8 -52,11 -31,3 -68,9 -111,19 -42,10 -89,27 -138,52 -50,24 -95,60 -135,106 -40,46 -73,106 -99,182 -26,75 -37,169 -33,283 6,188 18,375 34,560 16,184 38,370 66,555 15,97 31,196 49,296 18,99 48,195 90,286 40,96 96,158 169,187 72,28 161,40 265,35 54,-2 113,-6 177,-9 64,-4 125,-14 183,-29 58,-15 112,-37 161,-67 48,-30 85,-73 110,-130zm2216 118c20,45 19,85 -3,118 -22,34 -52,57 -90,71 -37,13 -77,13 -118,1 -42,-12 -72,-41 -93,-86 -51,-119 -95,-242 -134,-369 -39,-128 -76,-257 -111,-387 -36,-130 -72,-259 -109,-387 -36,-128 -77,-252 -121,-373 -44,-113 -88,-224 -132,-334 -44,-110 -88,-222 -132,-334 -44,358 -89,722 -135,1093 -46,370 -72,737 -77,1098 -1,49 -18,87 -51,114 -33,27 -70,42 -110,45 -40,2 -76,-8 -110,-30 -33,-22 -49,-58 -48,-107 2,-240 15,-481 39,-724 24,-243 50,-487 80,-732 30,-244 60,-488 92,-732 31,-244 55,-485 70,-723 4,-39 19,-72 46,-101 27,-28 58,-47 93,-56 34,-9 68,-6 101,9 33,15 58,44 74,88 78,241 166,476 263,707 97,230 188,466 272,705 40,113 77,230 111,352 34,122 68,243 102,365 34,121 69,242 106,361 37,120 79,235 125,348zm1502 -19c5,40 -3,77 -23,110 -20,34 -49,56 -87,67 -11,4 -33,8 -67,12 -34,3 -70,6 -107,9 -37,2 -71,4 -102,7 -31,2 -50,4 -56,4 -22,2 -42,3 -63,3 -20,1 -42,1 -65,1 -30,-2 -62,-4 -95,-7 -33,-3 -67,-8 -104,-14 -79,-12 -154,-34 -226,-66 -72,-33 -141,-89 -208,-170 -36,-44 -66,-91 -89,-141 -23,-50 -40,-101 -52,-153 -13,-52 -21,-104 -24,-155 -4,-51 -6,-101 -6,-150 -1,-94 -4,-191 -8,-291 -4,-100 -10,-210 -17,-330 -8,-110 -12,-222 -14,-334 -3,-112 2,-223 14,-334 12,-111 32,-221 61,-328 29,-108 72,-213 128,-313 40,-78 93,-152 158,-224 66,-72 156,-124 271,-155 40,-8 76,-16 108,-21 32,-6 65,-9 99,-11 34,-1 72,0 112,2 41,3 89,9 144,17 52,6 89,27 113,64 24,37 34,75 30,113 -4,43 -21,77 -52,103 -31,26 -70,36 -117,30 -17,-2 -30,-4 -40,-6 -9,-2 -18,-3 -27,-4 -8,-1 -17,-3 -27,-5 -10,-2 -24,-3 -43,-3 -43,-2 -82,0 -119,4 -36,5 -69,12 -99,21 -76,24 -135,68 -177,132 -43,65 -77,132 -104,203 -31,83 -55,169 -71,256 -17,88 -28,176 -33,264 -6,89 -7,177 -4,264 3,88 7,174 12,259l4 71c5,74 9,149 13,225 4,76 6,152 7,229l-3 51c1,74 4,149 10,224 6,74 27,139 64,194 41,59 84,100 128,121 44,20 99,36 165,46 49,6 96,9 141,8 44,0 92,-3 143,-7 7,0 23,-2 50,-4 27,-2 54,-5 83,-7 29,-3 55,-5 80,-7 24,-3 39,-4 43,-4 36,2 68,15 96,39 28,24 46,55 52,91zm2151 -2687c7,80 -27,134 -102,163 -37,12 -82,16 -135,12 -13,0 -26,-1 -40,-2 -14,-1 -27,-3 -40,-7 -19,-1 -34,-3 -44,-6 -58,-6 -115,-7 -173,-1 -58,5 -116,3 -173,-5 8,41 13,82 15,123 2,41 4,80 6,119 5,161 1,321 -11,480 -13,160 -27,310 -41,453 -6,42 -9,95 -10,158 -2,63 -3,133 -4,209 -1,92 0,191 2,296 2,105 1,209 -2,312 -3,104 -10,203 -20,297 -10,94 -28,177 -55,248 -13,37 -30,66 -51,87 -21,21 -50,30 -89,27 -30,-2 -59,-4 -89,-6 -30,-2 -52,-16 -68,-40 -3,-7 -6,-33 -8,-78 -3,-45 -3,-102 -2,-170 0,-68 1,-144 3,-226 2,-82 4,-164 7,-246 3,-82 6,-160 9,-234 3,-73 7,-135 10,-186 5,-66 6,-126 4,-178 -3,-53 -2,-97 3,-133 17,-151 33,-294 46,-431 13,-137 21,-273 25,-407l-2 -13c2,-56 2,-112 2,-168 0,-57 -3,-113 -10,-170l-1 -28c-3,-18 -5,-35 -8,-51 -2,-16 -6,-32 -14,-47 -3,-9 -8,-17 -14,-24l0 -3c-10,-3 -18,-9 -24,-18 -28,-4 -57,-8 -89,-11 -32,-3 -66,-6 -102,-9 -79,-6 -148,-7 -208,-3 -60,5 -116,15 -166,30 -50,14 -94,6 -131,-22 -38,-29 -60,-71 -67,-127 -3,-39 4,-78 23,-117 19,-39 54,-67 104,-82 116,-32 263,-42 442,-29 44,3 89,6 134,7 45,1 88,5 130,12 26,2 51,5 77,8 25,3 50,6 73,10 89,8 175,13 259,14 83,1 157,5 223,15l38 2c21,4 42,7 62,10 20,2 41,4 62,6l7 0c10,1 19,1 27,1 7,-1 13,-1 17,-1l10 -2c7,0 14,5 22,14 42,8 76,28 103,62 26,34 42,70 48,106zm2003 1447c-4,79 -9,171 -15,276 -5,104 -16,213 -32,327 -16,115 -37,229 -65,344 -27,114 -65,220 -113,317 -48,97 -108,182 -179,255 -72,72 -158,122 -258,150 -83,24 -174,37 -275,39 -100,2 -201,-5 -301,-22 -101,-18 -199,-44 -292,-80 -93,-35 -174,-79 -243,-131 -84,-62 -144,-142 -178,-240 -35,-98 -55,-202 -60,-313 -5,-110 -2,-220 11,-329 13,-109 25,-206 36,-290 21,-146 45,-289 71,-430 27,-140 53,-283 78,-428 15,-88 34,-178 55,-269 21,-91 49,-179 84,-265 32,-79 74,-145 125,-196 52,-52 108,-93 167,-122 60,-30 120,-52 181,-64 61,-13 117,-21 169,-24 52,-3 96,-3 132,1 36,4 59,6 67,7 93,14 182,37 267,68 85,31 162,72 231,123 69,51 128,111 178,181 51,70 88,150 113,242 36,140 54,285 55,436 1,150 -2,296 -9,437zm-635 1283c72,-92 128,-195 170,-308 41,-112 73,-229 95,-350 21,-121 36,-243 43,-365 7,-123 13,-240 16,-351 1,-95 2,-189 1,-282 -1,-94 -7,-188 -19,-282 -32,-273 -175,-443 -431,-510 -5,4 -23,3 -53,-2 -31,-5 -68,-8 -112,-9 -44,-1 -93,4 -147,15 -54,11 -106,34 -157,68 -50,35 -98,85 -142,151 -44,67 -78,155 -103,266 -41,184 -77,368 -108,551 -31,183 -56,368 -76,554 -10,98 -19,197 -27,298 -7,101 -2,201 15,300 15,103 54,178 117,223 62,46 145,80 248,101 52,11 110,23 173,36 62,12 124,18 184,18 60,1 118,-8 173,-24 54,-17 101,-50 140,-98zm2342 -2168c22,43 36,96 42,159 6,63 6,130 0,202 -6,71 -17,146 -33,224 -17,79 -36,155 -59,229 -25,77 -78,158 -158,240 -80,83 -174,157 -280,223 -107,66 -218,117 -336,153 -117,36 -223,45 -317,28 -10,-2 -21,-5 -31,-7 -10,-3 -21,-7 -31,-11l-30 147c-16,84 -30,169 -44,254 -13,85 -25,169 -36,252 -8,42 -15,84 -22,127 -7,44 -13,86 -19,129 -9,48 -15,87 -19,118 -3,31 -7,58 -10,81 -3,24 -7,48 -13,73 -6,25 -14,56 -25,93 -10,28 -23,50 -39,64 -17,14 -40,19 -69,13 -12,-2 -29,-7 -49,-15 -20,-8 -40,-17 -59,-27 -20,-11 -37,-22 -53,-36 -16,-14 -26,-28 -32,-42 -13,-26 -16,-53 -9,-79 8,-27 16,-55 26,-84 9,-39 16,-67 21,-83 6,-17 9,-31 10,-44 1,-13 3,-28 4,-47 1,-18 4,-48 10,-90 2,-20 3,-38 6,-56 2,-18 4,-36 8,-53 15,-118 33,-234 52,-348 20,-113 40,-223 60,-330l7 -41c28,-138 54,-277 79,-418 25,-141 48,-282 70,-423 5,-42 11,-84 16,-124 5,-40 11,-81 16,-124l22 -171c0,-9 0,-18 2,-26 1,-8 3,-18 5,-28 4,-23 9,-54 14,-92 5,-38 10,-77 15,-118 5,-40 11,-77 17,-110 6,-34 12,-58 17,-72 22,-76 65,-108 127,-97 8,2 40,8 94,17 54,10 119,24 196,40 77,16 161,36 252,59 91,24 177,50 257,79 81,29 151,59 211,91 61,31 99,65 117,101zm-320 692c15,-34 29,-74 43,-119 14,-45 24,-91 30,-137 7,-47 9,-92 6,-136 -3,-44 -12,-81 -28,-112 -10,-17 -44,-36 -102,-57 -58,-20 -123,-40 -196,-58 -72,-19 -143,-36 -213,-51 -70,-15 -123,-26 -158,-33l-44 -8c-2,30 -4,64 -8,101 -3,38 -7,75 -11,114 -4,38 -8,76 -13,115 -5,38 -10,70 -15,98 -4,25 -9,50 -12,75 -4,26 -8,50 -12,73 -10,80 -23,165 -38,253 -16,88 -32,185 -49,290 10,6 19,11 28,15 9,4 19,7 29,9 42,8 89,5 140,-7 51,-12 103,-31 155,-56 52,-25 104,-54 156,-87 51,-32 99,-66 142,-100 43,-35 80,-68 109,-100 30,-33 50,-60 61,-82z"/>
 </g>
</svg>
