<svg xmlns="http://www.w3.org/2000/svg" xml:space="preserve" width="93.1332mm" height="47.0746mm" version="1.1" style="shape-rendering:geometricPrecision; text-rendering:geometricPrecision; image-rendering:optimizeQuality; fill-rule:evenodd; clip-rule:evenodd"
viewBox="0 0 9313 4707"
 xmlns:xlink="http://www.w3.org/1999/xlink">
 <defs>
  <style type="text/css">
   <![CDATA[
    .str0 {stroke:#E31E24;stroke-width:35.28}
    .fil1 {fill:none}
    .fil3 {fill:#FEFEFE}
    .fil4 {fill:#C5C6C6}
    .fil0 {fill:#FFED00}
    .fil2 {fill:#562A25;fill-opacity:0.501961}
    .fnt1 {font-weight:bold;font-size:259.23px;font-family:'Roboto',sans-serif}
    .fnt0 {font-weight:bold;font-size:327.38px;font-family:'Roboto',sans-serif}
   ]]>
  </style>
   <clipPath id="id0">
    <rect x="4476" y="149" width="2415" height="4112"/>
   </clipPath>
   <clipPath id="id1">
    <path d="M506 2088l1448 0 0 2173 -1448 0 0 -2173z"/>
   </clipPath>
    <clipPath id="id2">
     <path d="M506 2088l1448 0 0 2173 -1448 0 0 -2173z"/>
    </clipPath>
    <clipPath id="id3">
     <path d="M506 2088l1448 0 0 2173 -1448 0 0 -2173z"/>
    </clipPath>
   <clipPath id="id4">
    <path d="M2293 1726l1810 0 0 2535 -1810 0 0 -2535z"/>
   </clipPath>
    <clipPath id="id5">
     <path d="M2293 1726l1810 0 0 2535 -1810 0 0 -2535z"/>
    </clipPath>
    <clipPath id="id6">
     <path d="M2293 1726l1810 0 0 2535 -1810 0 0 -2535z"/>
    </clipPath>
   <clipPath id="id7">
    <path d="M4261 2088l2172 0 0 2173 -2172 0 0 -2173z"/>
   </clipPath>
    <clipPath id="id8">
     <path d="M4261 2088l2172 0 0 2173 -2172 0 0 -2173z"/>
    </clipPath>
    <clipPath id="id9">
     <path d="M4261 2088l2172 0 0 2173 -2172 0 0 -2173z"/>
    </clipPath>
   <clipPath id="id10">
    <path d="M6636 1364l2172 0 0 2897 -2172 0 0 -2897z"/>
   </clipPath>
    <clipPath id="id11">
     <path d="M6636 1364l2172 0 0 2897 -2172 0 0 -2897z"/>
    </clipPath>
    <clipPath id="id12">
     <path d="M6636 1364l2172 0 0 2897 -2172 0 0 -2897z"/>
    </clipPath>
   <clipPath id="id13">
    <path d="M6036 4016l140 -50 47 -63 123 -129 28 -107 20 -122 45 -147 0 868 -417 0 -39 -41 -55 7 -33 -5 -17 -45 65 -46 4 -34 10 -13 79 -73z"/>
   </clipPath>
   <clipPath id="id14">
    <path d="M6891 4261l0 446 -2008 0 275 -381 -9 -65 -266 0 2008 0z"/>
   </clipPath>
   <clipPath id="id15">
    <path d="M5148 4261l608 0 0 63 -603 1 -5 -64z"/>
   </clipPath>
 </defs>
 <g id="Слой_x0020_1">
  <metadata id="CorelCorpID_0Corel-Layer"/>
  <g style="clip-path:url(#id0)">
   <image x="4476" y="149" width="2415" height="4112" xlink:href="/images/popular/pic2.jpg"/>
  </g>
  <polygon class="fil0" points="506,2088 1954,2088 1954,4261 506,4261 "/>
  <g style="clip-path:url(#id1)">
   <g id="_2014270831968">
   </g>
   <g style="clip-path:url(#id2)">
    <image x="379" y="2072" width="1625" height="2439" xlink:href="/images/popular/pic1.jpg"/>
   </g>
   <g style="clip-path:url(#id3)">
   </g>
  </g>
  <polygon class="fil1" points="506,2088 1954,2088 1954,4261 506,4261 "/>
  <polygon class="fil0" points="2293,1726 4103,1726 4103,4261 2293,4261 "/>
  <g style="clip-path:url(#id4)">
   <g id="_2014270830368">
   </g>
   <g style="clip-path:url(#id5)">
    <image x="2241" y="1694" width="1892" height="2839" xlink:href="/images/popular/pic1.jpg"/>
   </g>
   <g style="clip-path:url(#id6)">
   </g>
  </g>
  <polygon class="fil1" points="2293,1726 4103,1726 4103,4261 2293,4261 "/>
  <polygon class="fil0" points="4261,2088 6433,2088 6433,4261 4261,4261 "/>
  <g style="clip-path:url(#id7)">
   <g id="_2014270831232">
   </g>
   <g style="clip-path:url(#id8)">
    <image x="4225" y="1896" width="2262" height="3394" xlink:href="/images/popular/pic1.jpg"/>
   </g>
   <g style="clip-path:url(#id9)">
   </g>
  </g>
  <polygon class="fil1" points="4261,2088 6433,2088 6433,4261 4261,4261 "/>
  <polygon class="fil0" points="6636,1364 8808,1364 8808,4261 6636,4261 "/>
  <g style="clip-path:url(#id10)">
   <g id="_2014270831648">
   </g>
   <g style="clip-path:url(#id11)">
    <image x="6635" y="1278" width="2194" height="3292" xlink:href="/images/popular/pic1.jpg"/>
   </g>
   <g style="clip-path:url(#id12)">
   </g>
  </g>
  <polygon class="fil1" points="6636,1364 8808,1364 8808,4261 6636,4261 "/>
  <polygon class="fil2" points="506,2088 1954,2088 1954,4261 506,4261 "/>
  <polygon class="fil2" points="2293,1726 4103,1726 4103,4261 2293,4261 "/>
  <polygon class="fil2" points="4261,2088 6433,2088 6433,4261 4261,4261 "/>
  <polygon class="fil2" points="6636,1364 8808,1364 8808,4261 6636,4261 "/>
  <g transform="matrix(1 0 0 1 -3877.39 484.269)">
   <text x="4657" y="2354"  class="fil3 fnt0">{size1}</text>
  </g>
  <g transform="matrix(1 0 0 1 -3938.26 1401.14)">
   <text x="4657" y="2354"  class="fil3 fnt0">{price1}</text>
  </g>
  <g transform="matrix(1 0 0 1 -3712.33 983.799)">
   <text x="4657" y="2354"  class="fil4 fnt1">{oldPrice1}</text>
  </g>
  <line class="fil1 str0" x1="896" y1="3119" x2="1563" y2= "3359" />
  <line class="fil1 str0" x1="927" y1="3365" x2="1532" y2= "3146" />
  <g transform="matrix(1 0 0 1 -1913.36 303.248)">
   <text x="4657" y="2354"  class="fil3 fnt0">{size2}</text>
  </g>
  <g transform="matrix(1 0 0 1 -1970.14 1147.31)">
   <text x="4657" y="2354"  class="fil3 fnt0">{price2}</text>
  </g>
  <g transform="matrix(1 0 0 1 236.277 484.27)">
   <text x="4657" y="2354"  class="fil3 fnt0">{size3}</text>
  </g>
  <g transform="matrix(1 0 0 1 188.009 1328.34)">
   <text x="4657" y="2354"  class="fil3 fnt0">{price3}</text>
  </g>
  <g transform="matrix(1 0 0 1 2617.66 122.226)">
   <text x="4657" y="2354"  class="fil3 fnt0">{size4}</text>
  </g>
  <g transform="matrix(1 0 0 1 2560.55 966.292)">
   <text x="4657" y="2354"  class="fil3 fnt0">{price4}</text>
  </g>
  <g transform="matrix(1 0 0 1 -1744.21 731.311)">
   <text x="4657" y="2354"  class="fil4 fnt1">{oldPrice2}</text>
  </g>
  <line class="fil1 str0" x1="2864" y1="2873" x2="3532" y2= "3113" />
  <line class="fil1 str0" x1="2895" y1="3103" x2="3500" y2= "2884" />
  <g transform="matrix(1 0 0 1 405.1 912.333)">
   <text x="4657" y="2354"  class="fil4 fnt1">{oldPrice3}</text>
  </g>
  <line class="fil1 str0" x1="5013" y1="3054" x2="5681" y2= "3294" />
  <line class="fil1 str0" x1="5044" y1="3284" x2="5650" y2= "3065" />
  <g transform="matrix(1 0 0 1 2779.77 550.29)">
   <text x="4657" y="2354"  class="fil4 fnt1">{oldPrice4}</text>
  </g>
  <line class="fil1 str0" x1="7388" y1="2692" x2="8056" y2= "2932" />
  <line class="fil1 str0" x1="7419" y1="2922" x2="8024" y2= "2703" />
  <g style="clip-path:url(#id13)">
   <image x="5204" y="2898" width="1235" height="1368" xlink:href="/images/popular/pic3.jpg"/>
  </g>
  <g style="clip-path:url(#id14)">
   <image x="4883" y="4261" width="2008" height="447" xlink:href="/images/popular/pic4.jpg"/>
  </g>
  <g style="clip-path:url(#id15)">
   <image x="5150" y="4261" width="605.293" height="63.6502" xlink:href="/images/popular/pic5.jpg"/>
  </g>
 </g>
</svg>
