<?xml version="1.0" standalone="no"?>
<!DOCTYPE svg PUBLIC "-//W3C//DTD SVG 20010904//EN"
 "http://www.w3.org/TR/2001/REC-SVG-20010904/DTD/svg10.dtd">
<svg version="1.0" xmlns="http://www.w3.org/2000/svg"
 width="1448.000000pt" height="1448.000000pt" viewBox="0 0 1448.000000 1448.000000"
 preserveAspectRatio="xMidYMid meet">
<metadata>
Created by potrace 1.11, written by Peter Selinger 2001-2013
</metadata>
<g transform="translate(0.000000,1448.000000) scale(0.100000,-0.100000)"
fill="#000000" stroke="none">
<path d="M7150 13663 c-46 -142 -86 -262 -89 -268 -3 -5 -6 -14 -7 -20 -2 -10
-181 -556 -212 -647 l-16 -46 -316 -2 c-173 -1 -467 -2 -652 -3 -186 -1 -334
-5 -330 -8 7 -7 205 -153 247 -183 11 -8 74 -54 140 -103 66 -49 145 -106 175
-128 30 -22 62 -45 70 -52 8 -7 103 -76 210 -154 107 -78 197 -143 199 -145 4
-3 -40 -150 -64 -214 -7 -19 -37 -109 -65 -200 -50 -158 -82 -259 -204 -638
-31 -95 -56 -178 -56 -183 0 -9 33 10 75 43 14 12 236 170 262 188 12 8 100
72 195 141 95 69 229 165 298 214 69 49 127 93 128 97 2 4 10 8 17 8 7 0 15 4
17 8 2 4 17 17 34 29 29 21 32 21 55 5 13 -9 29 -21 35 -27 6 -5 22 -17 34
-25 31 -21 541 -388 560 -403 9 -6 45 -32 80 -57 36 -24 70 -49 77 -55 6 -5
27 -20 45 -33 18 -13 70 -50 116 -83 46 -34 85 -59 87 -57 1 1 -11 44 -27 93
-16 50 -31 95 -32 100 -1 6 -21 66 -43 135 -23 69 -71 220 -108 335 -36 116
-74 233 -83 260 -9 28 -17 52 -17 55 -1 3 -4 12 -7 20 -3 8 -21 65 -41 125
-39 121 -39 120 23 161 19 13 78 55 130 94 52 39 112 82 133 96 21 13 45 32
55 40 15 14 137 103 450 331 100 73 202 150 214 162 4 3 -257 8 -580 10 -323
1 -616 3 -651 4 l-64 2 -72 215 c-39 118 -73 218 -74 222 -1 4 -4 13 -6 20 -3
7 -61 185 -130 396 -70 210 -127 382 -129 382 -1 0 -40 -116 -86 -257z"/>
<path d="M12014 12138 c-21 -11 -91 -51 -155 -88 -63 -36 -122 -69 -130 -73
-8 -4 -27 -15 -44 -26 -16 -10 -47 -28 -67 -40 -21 -11 -54 -30 -73 -41 -19
-11 -50 -29 -68 -39 -75 -42 -314 -180 -347 -200 -19 -11 -42 -24 -50 -28 -14
-6 -227 -130 -340 -197 -25 -15 -57 -32 -72 -39 -16 -6 -28 -15 -28 -19 0 -4
-4 -8 -9 -8 -5 0 -103 -55 -218 -123 -115 -68 -216 -127 -224 -130 -8 -4 -30
-17 -50 -30 -21 -12 -130 -76 -244 -142 l-207 -120 29 -25 c16 -14 51 -44 78
-67 28 -23 84 -70 125 -105 42 -35 98 -81 124 -103 27 -22 54 -45 60 -50 6 -6
36 -30 66 -55 30 -25 66 -55 80 -66 74 -64 120 -102 158 -132 39 -32 56 -46
112 -95 14 -12 50 -42 80 -67 30 -25 57 -47 60 -50 3 -3 46 -39 95 -80 50 -41
95 -79 101 -85 38 -34 121 -102 138 -114 12 -8 23 -17 26 -21 18 -21 96 -80
105 -80 6 0 18 21 27 48 9 26 30 85 47 132 18 47 45 121 60 165 16 44 35 94
41 110 7 17 14 35 15 40 3 14 123 345 134 370 5 11 30 79 55 150 26 72 69 191
96 265 27 74 84 232 126 350 42 118 79 224 84 235 18 45 35 90 35 95 0 3 6 19
12 35 7 17 35 95 63 175 61 172 79 222 114 314 15 38 25 70 23 72 -2 2 -21 -6
-43 -18z"/>
<path d="M1834 12006 c-7 -19 29 -262 66 -446 6 -30 13 -64 15 -75 1 -11 10
-54 20 -95 9 -41 18 -83 20 -93 62 -294 267 -935 350 -1094 8 -15 15 -31 15
-35 0 -4 28 -67 63 -140 35 -73 63 -136 63 -139 -1 -3 4 -12 10 -20 7 -8 26
-41 44 -74 30 -56 127 -218 160 -269 8 -13 28 -43 44 -67 16 -24 32 -46 35
-49 3 -3 26 -32 50 -65 101 -137 290 -337 416 -441 33 -27 62 -51 65 -54 5 -5
85 -65 150 -111 87 -64 267 -161 391 -212 42 -17 211 -68 242 -72 12 -2 42 -6
67 -10 111 -18 264 -9 375 22 137 39 235 102 372 239 175 178 242 303 292 549
10 52 8 323 -3 385 -62 337 -242 700 -481 969 -100 114 -216 231 -315 319 -19
17 -42 37 -50 45 -83 74 -269 212 -407 301 -105 68 -115 74 -264 156 -231 129
-586 282 -844 363 -209 66 -240 76 -345 102 -137 35 -117 30 -260 60 -155 33
-159 34 -201 39 -19 3 -34 5 -34 6 0 1 -20 4 -45 6 -25 3 -51 7 -58 9 -7 3
-15 -2 -18 -9z"/>
<path d="M9455 10478 c-49 -60 -97 -117 -105 -126 -8 -9 -46 -55 -85 -102 -38
-47 -80 -96 -92 -110 -12 -14 -61 -72 -109 -130 -48 -58 -92 -110 -98 -116 -6
-6 -22 -25 -36 -43 -14 -18 -32 -40 -41 -49 -8 -10 -37 -44 -65 -77 -27 -33
-53 -65 -59 -71 -5 -6 -28 -33 -50 -60 -55 -66 -111 -133 -143 -169 -15 -17
-45 -53 -67 -80 -43 -54 -74 -91 -90 -109 -6 -6 -33 -38 -60 -71 -27 -33 -65
-78 -85 -101 -19 -22 -44 -51 -55 -65 -50 -61 -270 -325 -275 -329 -3 -3 -86
-102 -185 -220 -99 -118 -187 -224 -197 -235 -9 -11 -82 -99 -163 -195 -80
-96 -154 -184 -163 -195 -9 -11 -54 -64 -99 -117 l-81 -98 -59 68 c-32 37 -60
69 -63 72 -3 3 -30 34 -60 70 -49 57 -78 87 -116 119 -72 59 -241 86 -341 53
l-31 -10 -150 161 c-163 177 -170 184 -312 337 -54 58 -113 121 -130 140 -18
19 -81 87 -140 150 -59 63 -121 131 -138 150 l-32 34 -31 -29 c-18 -17 -40
-37 -49 -45 -40 -37 -236 -218 -270 -250 -21 -19 -86 -80 -145 -135 -60 -55
-123 -113 -141 -130 -17 -16 -76 -71 -130 -121 -195 -181 -179 -162 -158 -186
11 -11 30 -33 44 -47 49 -52 258 -277 316 -340 33 -35 75 -81 94 -101 19 -21
78 -84 130 -140 52 -57 113 -122 135 -145 22 -24 78 -84 124 -134 l85 -92 2
-62 c3 -78 34 -163 83 -225 21 -26 125 -132 230 -235 118 -116 189 -193 184
-200 -6 -11 -21 -29 -63 -76 -15 -16 -91 -109 -120 -144 -8 -11 -20 -24 -25
-31 -6 -6 -82 -96 -170 -201 -87 -104 -184 -219 -214 -255 -31 -36 -72 -85
-91 -109 -19 -23 -43 -53 -54 -64 -10 -12 -35 -42 -55 -67 -20 -25 -39 -47
-42 -50 -5 -4 -75 -88 -129 -154 -8 -10 -19 -23 -25 -30 -5 -6 -35 -40 -65
-76 -30 -36 -59 -70 -65 -76 -5 -7 -26 -31 -45 -55 -44 -55 -204 -246 -234
-279 -12 -14 -66 -79 -121 -145 -55 -66 -102 -122 -105 -125 -3 -3 -25 -30
-50 -60 -25 -30 -47 -57 -50 -60 -3 -3 -32 -36 -64 -75 -32 -38 -75 -90 -96
-115 -21 -25 -79 -94 -130 -155 -51 -60 -102 -121 -113 -135 -12 -14 -44 -52
-71 -85 -28 -33 -55 -65 -61 -72 -5 -6 -26 -31 -46 -55 -35 -41 -203 -242
-237 -283 -10 -11 -42 -49 -71 -85 -30 -36 -62 -74 -72 -85 -17 -19 -94 -110
-184 -219 -22 -27 -50 -60 -63 -75 -13 -14 -35 -42 -50 -61 -15 -19 -30 -37
-33 -40 -3 -3 -30 -34 -60 -70 -29 -36 -58 -70 -64 -76 -11 -12 -44 -51 -162
-193 -40 -47 -97 -120 -127 -162 -180 -248 -248 -517 -192 -759 12 -53 70
-149 114 -192 26 -25 146 -128 267 -229 121 -101 229 -192 240 -202 26 -24
105 -82 114 -82 3 -1 16 -6 28 -13 72 -40 233 -48 358 -17 227 56 431 207 666
495 56 69 118 144 138 166 20 23 43 50 51 60 26 32 114 137 137 164 12 14 61
72 109 130 48 58 113 134 144 170 30 36 75 90 100 120 25 30 74 88 108 129 35
42 71 85 80 96 10 11 51 60 92 109 41 50 145 174 231 277 173 207 170 204 202
240 12 14 40 47 62 73 54 66 746 892 792 946 12 14 51 61 88 105 37 44 77 91
89 105 11 14 66 79 120 145 55 66 103 122 106 125 3 3 37 43 75 90 38 47 74
90 80 96 5 6 28 33 50 60 22 26 56 67 75 89 19 23 53 63 75 89 56 68 72 86
110 131 19 22 40 48 47 57 12 15 67 -36 495 -460 1458 -1443 1881 -1862 2886
-2855 312 -309 547 -533 575 -550 123 -72 267 -70 389 6 68 42 216 178 263
242 63 87 92 166 92 253 0 134 -46 221 -207 396 -6 6 -33 38 -60 71 -28 33
-54 65 -60 71 -5 6 -32 37 -60 69 -27 32 -54 63 -60 69 -5 6 -32 38 -60 71
-66 79 -86 103 -110 130 -52 58 -350 408 -410 480 -22 26 -47 55 -55 64 -9 9
-40 45 -70 81 -30 36 -60 71 -67 78 -7 7 -29 34 -50 60 -21 26 -43 52 -49 57
-6 6 -62 71 -125 145 -62 74 -116 137 -119 140 -3 3 -86 100 -184 215 -99 116
-200 235 -226 265 -94 109 -664 776 -704 824 -22 27 -51 60 -63 73 -11 13 -35
42 -53 63 -18 21 -42 50 -53 62 -12 13 -51 58 -86 101 -35 42 -67 77 -71 77
-4 0 -11 8 -16 19 -5 10 -32 45 -60 77 -29 33 -86 100 -129 149 -42 50 -87
101 -99 115 -18 21 -77 91 -216 254 -14 16 -32 37 -40 45 -8 9 -35 41 -59 71
-25 30 -60 71 -78 91 l-33 35 42 51 c24 28 59 70 78 94 19 23 44 52 55 64 11
11 49 56 85 100 35 44 74 91 86 105 12 14 52 61 89 105 37 44 77 91 88 105 12
14 44 52 72 85 27 33 52 62 55 65 3 3 37 43 75 90 38 47 72 87 75 90 3 3 28
32 55 65 71 85 65 78 277 331 106 126 211 252 233 279 22 26 52 62 67 79 14
17 77 92 139 166 61 74 114 137 118 140 3 3 24 28 46 55 42 52 55 68 126 151
24 28 62 72 84 99 79 96 217 260 238 285 13 14 41 47 62 75 22 27 47 56 55 65
16 18 30 35 100 120 25 30 48 57 52 60 4 3 20 22 35 42 30 39 179 214 200 236
7 7 13 19 13 26 0 6 -48 52 -106 101 -59 49 -112 94 -118 100 -6 5 -36 30 -66
55 -30 25 -57 47 -60 50 -3 3 -32 27 -65 55 -33 27 -71 59 -85 72 -14 12 -97
81 -185 154 -88 73 -166 138 -173 146 -8 7 -30 26 -50 41 -21 15 -41 32 -47
38 -5 6 -37 33 -70 60 -33 27 -62 51 -65 54 -3 3 -30 25 -60 50 -85 69 -102
84 -119 100 -9 9 -41 36 -71 60 -30 25 -56 48 -58 53 -11 23 -47 -7 -127 -105z"/>
<path d="M6782 2400 l-450 -449 428 -428 c236 -235 439 -438 453 -451 l25 -23
452 451 452 451 -450 449 c-247 248 -452 450 -455 450 -3 0 -208 -202 -455
-450z"/>
</g>
</svg>
